<?xml version="1.0" encoding="UTF-8"?>
<svg id="Layer_1" data-name="Layer 1" xmlns="http://www.w3.org/2000/svg" viewBox="0 0 1119.92 282.94">
  <defs>
    <style>
      .cls-1 {
        fill: #08575d;
      }

      .cls-2 {
        fill: #09575d;
      }

      .cls-3 {
        fill: #07575d;
      }

      .cls-4 {
        fill: #155d62;
      }

      .cls-5 {
        fill: #145c62;
      }

      .cls-6 {
        fill: #155d63;
      }

      .cls-7 {
        fill: #0a585e;
      }

      .cls-8 {
        fill: #135d62;
      }

      .cls-9 {
        fill: #09585e;
      }

      .cls-10 {
        fill: #09585d;
      }

      .cls-11 {
        fill: #125c61;
      }

      .cls-12 {
        fill: #115b61;
      }

      .cls-13 {
        fill: #0c595f;
      }
    </style>
  </defs>
  <path class="cls-2" d="M134.92,103.17c-1.03-.22-.81.78-1.1,1.49-9.43,22.77-16.01,48.82-24.36,72.28-5.64,15.84-9.7,33.48-31.04,30.98-16.62-1.94-19.68-17.19-24.46-30.24C36.54,130.12,21.03,81.71,4.58,33.81-.03,17.08,31.09,6.86,42.16,11.25c4.34,1.72,6.92,7.47,8.64,11.59,12.05,28.77,18.87,62.62,30.09,92.01l1.56,1.05,30.87-92.36c8.65-15.09,30.64-16.03,41.09-2.38l32.61,96.24c10.95-29.22,18.5-59.82,29.26-89.1,5.69-15.49,10.05-21.68,27.9-16.7,9.6,2.68,22.34,8.73,20.41,20.78-17.69,51.14-33.29,103.67-52.45,154.29-2.44,6.46-3.48,11.08-9.07,15.65-12.41,10.14-29.33,6.74-37.04-7.05l-31.12-92.11Z"/>
  <path class="cls-2" d="M540.47,15.17c1.43-11.49,10.44-14.12,20.58-14.63s23.4.71,25.67,12.61c2.27,58.91.3,118.23,1,177.29-1.17,11.54-6.33,16.34-17.73,17.48-10.33,1.03-27.28.52-28.78-12.64-19.75,19.46-49.2,15.1-68.97-1.86-35.22-30.23-36.14-79.67-1.13-110.49,19.79-17.43,49.41-23.5,69.36-2.98V15.17ZM510.29,114.58c-5.48.92-12.49,7.16-14.95,12.03-11.16,22.05,15.24,44.36,34.57,30.04,20.09-14.89,6.75-46.51-19.62-42.07Z"/>
  <path class="cls-1" d="M876.3,79.95c22.48-23.37,56.38-12.09,75.69,9.38,29.41,32.71,23.77,80.3-10.86,106.68-19.35,14.74-47.71,17.78-65.57-.73-2.55,13.4-19.2,13.76-30.16,12.52-11.3-1.28-15.47-6.15-16.35-17.36V18.88c.26-3.92,1.34-9.51,3.88-12.59,6-7.25,29.17-7.11,36.59-2.32,2.82,1.82,6.78,8.81,6.78,11.95v64.03ZM894.84,114.58c-8.56,1.33-16.37,10.76-17.6,19.11-3.05,20.78,19.35,35.35,36.48,22.97,20.37-14.72,7.75-46.21-18.88-42.08Z"/>
  <path class="cls-2" d="M1097.94,77.94c5.38,6.38-.36,17.37-4.4,23.22-11.4,16.49-21.69,1.7-36.94.49-4.97-.4-28.12-.7-19.57,9.83,4.45,5.48,25.17,7.05,32.83,9.14,28.91,7.89,41.73,25.26,35.48,55.99-8.82,43.38-86.79,41.62-112.86,18.32-8.98-8.03-.74-22.83,5.69-30.27,11.88-13.74,30.93,6.76,44.92,8.17,4.48.45,19.84.2,19.56-6.37-.63-2.88-3.58-3.99-6.05-4.88-6.08-2.2-13.52-2.47-19.89-4.09-29.27-7.42-45.74-23.74-43.51-55.45,3.11-44.16,67.45-43.77,97.25-28.94,1.69.84,6.45,3.63,7.49,4.86Z"/>
  <path class="cls-2" d="M378.42.02c12.32-.25,23.15,1.88,24.79,15.98l.18,136.87c-.48,16.68,14.7,5.65,22.4,14.32,5.2,5.86,4.67,28.01,1.16,34.88-3.84,7.52-15.22,6.99-22.53,6.69-37.64-1.55-46.58-12.86-48.39-49.76-2.27-46.26,1.75-94.36.04-140.81C357.29,3.74,364.8.29,378.42.02Z"/>
  <path class="cls-9" d="M299.68,67.43c11.06-1.32,29.28-.71,30.9,13.64l-.09,113c-1.39,15.62-20.53,15.97-32.34,13.75-11.08-2.09-13.92-7.38-14.8-18.17-2.74-33.58,1.94-70.78.08-104.74,1.05-11.1,4.79-16.12,16.23-17.49Z"/>
  <path class="cls-7" d="M782.33,36.78c10.64,10.74,20.4,25.8,24.14,40.39l-42.23,41.73-31.12-109.33c18.35,3.85,36.04,13.93,49.21,27.22Z"/>
  <path class="cls-2" d="M689.64,56.74l-80.95,80.12c-6.48-26.28-3.66-53.37,9.35-77.15,2.02-3.69,9.74-16.09,12.75-18.03,2.55-1.64,51.79,14.21,58.86,15.06Z"/>
  <path class="cls-2" d="M808.83,82.95c8.57,33.71.29,69.4-22.5,95.52l-58.46-15.4,80.95-80.12Z"/>
  <path class="cls-9" d="M781.84,182.56c1.11,1.08-16.15,13.81-17.76,14.82-22.59,14.26-49.95,18.75-76.13,13.62l-15.54-58.41,109.44,29.96Z"/>
  <path class="cls-9" d="M682.14,209.5c-27.35-6.45-51.77-26.25-64.85-50.9-1.55-2.93-5.77-11.27-6.23-14.07-.18-1.11-.28-1.96.58-2.84l41.65-41.52,28.85,109.33Z"/>
  <path class="cls-10" d="M727.69,8.24l16.67,58.23-108.69-29.21c22.53-24.88,59.23-35.5,92.02-29.02Z"/>
  <path class="cls-7" d="M301.19.79c8.67-.94,22.98-.7,27.28,8.25,3.23,6.72,3.5,26.14-.89,32.35-5.35,7.56-21.71,7.33-30.03,6.03-13.83-2.17-14.94-15.28-14.24-27.03.76-12.84,4.91-18.19,17.87-19.59Z"/>
  <rect class="cls-3" y="261.93" width="374.06" height="3.74"/>
  <rect class="cls-3" x="748.86" y="261.93" width="371.06" height="3.74"/>
  <path class="cls-12" d="M440.77,282.14l-8.89-.09-2.27-6.18-13.08-.5-2.71,6.43-9.03.34c2.92-4.47,12.49-34.07,14.98-35.57,1.51-.9,6.17-.84,7.08,1.17l13.91,34.4ZM423.52,257.44c-1.69-.31-1.19.09-1.67.95-1.56,2.84-1.91,7.3-3.57,10.27h8.99s-3.76-11.22-3.76-11.22Z"/>
  <path class="cls-8" d="M616.18,282.15l-7.84.05-.42-2.3c-11.27,9.08-24.84-4.13-17.39-16.25,3.6-5.86,12.24-6.94,17.39-2.46l.42-2.3,7.84.05v23.22ZM601.74,265.04c-6.47,1.18-5.88,12.43,2.03,11.13,6.15-1.01,5.06-12.42-2.03-11.13Z"/>
  <path class="cls-8" d="M708.38,282.15l-7.84.05-.42-2.3c-11.27,9.08-24.84-4.13-17.39-16.25,3.6-5.86,12.24-6.94,17.39-2.46l.42-2.3,7.84.05v23.22ZM693.94,265.04c-6.47,1.18-5.88,12.43,2.03,11.13,6.15-1.01,5.06-12.42-2.03-11.13Z"/>
  <path class="cls-4" d="M461.76,258.93v13.85c0,5.35,7.5,3.46,7.5,0v-13.85h8.25v23.22c-2.81-.56-7.66,1.49-8.6-1.5-5.37,5.27-15.38.73-15.38-6.36v-15.35h8.25Z"/>
  <path class="cls-11" d="M515.73,266.42c-2.22-.37-5.77.54-7.71.01-.9-.24-2.42-4.56-6.53-2.24l.02,2.19c6.91,1.91,16.47,1.4,14.06,11.49-1.43,5.97-14.26,5.94-18.85,3.43-2.31-1.26-7.44-7.38-3.1-8.14.94-.17,5.78-.19,6.26.11.89.57,1.83,7,7.6,2.5.22-1.5,0-1.79-1.28-2.45-2.99-1.54-10.77-.69-12.56-4.67-5.46-12.14,21.45-14.55,22.1-2.24Z"/>
  <polygon class="cls-6" points="532.97 265.67 528.8 264.97 528.47 258.93 532.98 258.94 532.97 249.94 540.52 250.27 541.22 258.94 544.97 258.93 544.97 265.68 541.22 265.67 541.22 282.15 532.97 282.15 532.97 265.67"/>
  <rect class="cls-7" x="632.67" y="243.21" width="7.5" height="38.94"/>
  <path class="cls-6" d="M559.21,258.93l7.84-.05.42,2.3c5.78-4.47,10.66-4.05,8.63,4.51-.81,1.44-2.13-.74-3.64-.6-1.88.17-5,2.97-5,4.7v12.36h-8.25v-23.22Z"/>
  <path class="cls-13" d="M665.66,282.15h-8.25v-23.22c2.68.34,6.27-1.01,8.25,1.12v22.09Z"/>
  <path class="cls-5" d="M657.58,247.88c3.76-3.74,10.78.6,7.36,6.24s-11.84-1.8-7.36-6.24Z"/>
</svg>